<svg width="47" height="30" viewBox="0 0 47 30" fill="none" xmlns="http://www.w3.org/2000/svg">
<g id="Layer_2" clip-path="url(#clip0_4345_635)">
<path id="Vector" d="M0 19.7432C0.197155 18.7894 0.360022 17.8357 0.762904 16.9426C1.72296 14.801 3.22305 13.1883 5.34032 12.2085C5.6232 12.0785 5.69177 11.905 5.70892 11.6103C5.87179 8.28944 7.089 5.43684 9.52344 3.18251C13.2351 -0.25102 18.6869 -0.970673 23.1614 1.34436C25.1501 2.36748 26.8045 3.78077 28.0903 5.62759C28.236 5.83568 28.3474 5.93973 28.6389 5.82701C32.1962 4.54378 36.2251 6.91083 36.9022 10.6825C36.9794 11.1247 37.1337 11.2461 37.5709 11.2374C40.3482 11.2287 42.7483 12.1478 44.6599 14.2548C47.5057 17.3935 47.7972 22.5438 45.3113 25.9946C43.3826 28.6738 40.7596 29.9918 37.4937 29.9918C31.1933 29.9918 24.8929 29.9918 18.584 29.9918C15.3867 29.9918 12.1893 30.0351 8.99197 29.9744C4.50885 29.8877 0.754332 26.4629 0.102863 21.9629C0.0771475 21.8155 0.0342878 21.6681 0 21.512L0 19.7432ZM23.5043 28.4918C23.5043 28.4918 23.5043 28.4918 23.5043 28.5004C28.1417 28.5004 32.7791 28.5004 37.408 28.5004C38.0509 28.5004 38.6938 28.4744 39.3195 28.3357C42.7226 27.5727 45.1313 24.8848 45.4828 21.3559C45.8428 17.7316 43.8541 14.4108 40.4853 13.197C39.0795 12.6941 37.6309 12.7027 36.1822 12.7287C35.7279 12.7374 35.565 12.642 35.5564 12.1305C35.5564 9.79811 34.2792 7.95129 32.222 7.24898C30.8162 6.76343 29.4446 6.85881 28.1931 7.73453C27.8674 7.95996 27.6874 7.91661 27.5502 7.56112C27.5245 7.49175 27.4817 7.42239 27.4388 7.3617C24.7729 3.22586 21.087 1.05823 16.141 1.63915C12.9265 2.02066 10.4321 3.72875 8.7091 6.52066C7.55189 8.39349 7.10615 10.4571 7.16615 12.642C7.16615 12.9542 7.11472 13.1276 6.77184 13.2403C4.50027 14.0033 2.94018 15.5467 2.03155 17.775C0.0171439 22.6912 3.64308 28.405 8.90626 28.4831C13.7666 28.5611 18.6354 28.5004 23.5043 28.5004V28.4918Z" fill="url(#paint0_linear_4345_635)"/>
<path id="Arrow 1" d="M24.2071 12.5284C23.8166 12.1379 23.1834 12.1379 22.7929 12.5284L16.4289 18.8923C16.0384 19.2829 16.0384 19.916 16.4289 20.3066C16.8195 20.6971 17.4526 20.6971 17.8431 20.3066L23.5 14.6497L29.1569 20.3066C29.5474 20.6971 30.1805 20.6971 30.5711 20.3066C30.9616 19.916 30.9616 19.2829 30.5711 18.8923L24.2071 12.5284ZM24.5 23.8237L24.5 13.2355L22.5 13.2355L22.5 23.8237L24.5 23.8237Z" fill="url(#paint1_linear_4345_635)"/>
</g>
<defs>
<linearGradient id="paint0_linear_4345_635" x1="23.5003" y1="0.00146484" x2="23.5003" y2="30.0068" gradientUnits="userSpaceOnUse">
<stop stop-color="white"/>
<stop offset="1" stop-color="#00BEE7"/>
</linearGradient>
<linearGradient id="paint1_linear_4345_635" x1="23.5" y1="18.5296" x2="24.5" y2="18.5296" gradientUnits="userSpaceOnUse">
<stop stop-color="white"/>
<stop offset="1" stop-color="#00BEE7"/>
</linearGradient>
<clipPath id="clip0_4345_635">
<rect width="47" height="30" fill="white"/>
</clipPath>
</defs>
</svg>
