<svg width="51" height="48" viewBox="0 0 51 48" fill="none" xmlns="http://www.w3.org/2000/svg">
<path d="M5.07249 39.4298C5.13478 39.6724 5.33625 39.7844 5.48469 39.932C7.23026 41.6758 8.9798 43.4131 10.7307 45.1516C10.9971 45.4165 11.2714 45.6802 11.343 46.069C11.4557 46.6845 11.294 47.2091 10.7492 47.5611C10.1846 47.9262 9.61998 47.884 9.09114 47.4741C8.93474 47.3541 8.79822 47.2065 8.65773 47.0681C6.03341 44.4596 3.4091 41.8512 0.786108 39.24C-0.15626 38.3029 -0.166863 37.6307 0.754298 36.7133C3.40645 34.0705 6.0639 31.4318 8.7187 28.7917C9.03282 28.4793 9.34827 28.1774 9.83337 28.1445C10.4165 28.1049 10.8857 28.304 11.18 28.8048C11.4835 29.3228 11.4663 29.8567 11.1058 30.3509C10.9639 30.5447 10.789 30.716 10.6167 30.8861C8.93076 32.564 7.24351 34.2406 5.55626 35.9185C5.38794 36.0872 5.22624 36.2625 5.05791 36.4365C5.24214 36.6513 5.45421 36.563 5.63712 36.563C18.2921 36.5683 30.9472 36.5709 43.6035 36.5657C46.375 36.5657 48.1537 34.7836 48.1616 32.0223C48.1696 29.365 48.155 26.7065 48.1683 24.0492C48.1749 22.8933 49.1345 22.2 50.1073 22.6204C50.6693 22.8629 50.9715 23.3085 50.9728 23.9095C50.9781 26.8752 51.0471 29.8422 50.945 32.8039C50.8231 36.31 47.8051 39.2031 44.2808 39.356C43.9495 39.3705 43.6181 39.3679 43.2868 39.3679C30.808 39.3679 18.3293 39.3679 5.85051 39.3719C5.59603 39.3719 5.33227 39.3099 5.07249 39.4285V39.4298Z" fill="url(#paint0_linear_4660_770)"/>
<path d="M46.1071 8.42716C45.8407 8.14377 45.6975 7.98297 45.5464 7.83271C43.7823 6.07703 42.0156 4.32531 40.2554 2.56567C39.5476 1.85918 39.492 1.01166 40.0937 0.41721C40.7074 -0.189105 41.5265 -0.136382 42.2555 0.587242C44.9765 3.28534 47.6936 5.9874 50.4054 8.69473C51.1821 9.46976 51.1834 10.2171 50.4107 10.9882C47.6989 13.6955 44.9805 16.3976 42.2594 19.0957C41.5278 19.8219 40.7127 19.8786 40.0964 19.2749C39.492 18.6844 39.545 17.8303 40.2488 17.1265C42.0089 15.3668 43.777 13.6151 45.5398 11.8594C45.6922 11.7079 45.8354 11.5484 45.9931 11.381C45.7824 11.1793 45.5518 11.265 45.349 11.265C32.7165 11.2597 20.084 11.2584 7.45147 11.2623C4.65882 11.2623 2.90663 13.0114 2.89868 15.7886C2.89205 18.314 2.89868 20.8395 2.89603 23.3662C2.89603 23.5864 2.90133 23.8065 2.88012 24.024C2.80855 24.7687 2.26115 25.2748 1.52422 25.288C0.796574 25.3012 0.116637 24.8069 0.11001 24.0859C0.0821768 20.9028 -0.167001 17.7011 0.192186 14.5417C0.614992 10.8234 3.56801 8.44825 7.37989 8.43111C11.6862 8.41134 15.9924 8.42584 20.2987 8.42584C28.5799 8.42584 36.8624 8.42584 45.1435 8.42584H46.1031L46.1071 8.42716Z" fill="url(#paint1_linear_4660_770)"/>
<path d="M25.513 30.3075C29.0393 30.3075 31.898 27.4473 31.898 23.9191C31.898 20.3909 29.0393 17.5308 25.513 17.5308C21.9866 17.5308 19.1279 20.3909 19.1279 23.9191C19.1279 27.4473 21.9866 30.3075 25.513 30.3075Z" fill="url(#paint2_linear_4660_770)"/>
<defs>
<linearGradient id="paint0_linear_4660_770" x1="25.5359" y1="22.4966" x2="25.5359" y2="47.8102" gradientUnits="userSpaceOnUse">
<stop stop-color="white"/>
<stop offset="1" stop-color="#00BEE7"/>
</linearGradient>
<linearGradient id="paint1_linear_4660_770" x1="25.4945" y1="0" x2="25.4945" y2="25.2882" gradientUnits="userSpaceOnUse">
<stop stop-color="white"/>
<stop offset="1" stop-color="#00BEE7"/>
</linearGradient>
<linearGradient id="paint2_linear_4660_770" x1="25.513" y1="17.5308" x2="25.513" y2="30.3075" gradientUnits="userSpaceOnUse">
<stop stop-color="white"/>
<stop offset="1" stop-color="#00BEE7"/>
</linearGradient>
</defs>
</svg>
