<svg width="82" height="27" viewBox="0 0 82 27" fill="none" xmlns="http://www.w3.org/2000/svg">
<g clip-path="url(#clip0_4345_659)">
<path d="M18.3803 21.5175C22.8059 21.5175 26.3935 17.9281 26.3935 13.5002C26.3935 9.07238 22.8059 5.48291 18.3803 5.48291C13.9548 5.48291 10.3672 9.07238 10.3672 13.5002C10.3672 17.9281 13.9548 21.5175 18.3803 21.5175Z" fill="#F42201"/>
<path d="M36.7544 5.66455C41.0851 5.66455 42.8174 7.05122 42.8174 10.2865C42.8174 12.2233 42.2177 13.61 40.0523 14.3804L43.5835 21.3357H39.6858L36.5876 14.9089H34.4888V21.3357H30.7578V5.66455H36.754H36.7544ZM34.4891 7.88783V12.686H36.7878C38.7864 12.686 39.0865 11.5855 39.0865 10.2869C39.0865 8.98832 38.7868 7.88783 36.7878 7.88783H34.4891Z" fill="url(#paint0_linear_4345_659)"/>
<path d="M56.642 7.88783H50.4126V12.2679H55.776V14.4908H50.4126V19.1128H56.642V21.3357H46.6816V5.66455H56.642V7.88747V7.88783Z" fill="url(#paint1_linear_4345_659)"/>
<path d="M69.7332 6.50131C70.9323 7.22754 71.5655 8.41612 71.632 9.80279H67.901C67.8676 9.23043 67.7343 8.65843 67.3347 8.28417C67.0016 7.93184 66.4687 7.71181 65.5693 7.71181C64.6699 7.71181 64.137 7.95377 63.8035 8.3061C63.0705 9.05462 62.9706 10.639 62.9706 13.5005C62.9706 16.3619 63.0705 17.9466 63.8035 18.6948C64.1366 19.0471 64.6695 19.2891 65.5693 19.2891C66.4691 19.2891 67.0016 19.0691 67.3347 18.7167C67.7343 18.3205 67.8676 17.7482 67.901 17.1762H71.632C71.5655 18.5848 70.8659 19.7953 69.6664 20.5219C68.6003 21.1823 67.3678 21.5124 65.5689 21.5124C63.3702 21.5124 61.9379 20.94 60.9716 20.1699C59.406 18.9375 59.2393 17.2204 59.2393 13.5008C59.2393 9.78122 59.406 8.06414 60.9716 6.83171C61.9375 6.06125 63.3702 5.48926 65.5689 5.48926C67.3678 5.48926 68.6671 5.84159 69.7329 6.50167L69.7332 6.50131Z" fill="url(#paint2_linear_4345_659)"/>
<path d="M12.6486 2.37284V0H2.3716H0V2.37284V24.6272V27H2.3716H12.6486V24.6272H2.3716V2.37284H12.6486Z" fill="white"/>
<path d="M69.3516 24.6272V27H79.6285H82.0001V24.6272V2.37284V0H79.6285H69.3516V2.37284H79.6285V24.6272H69.3516Z" fill="white"/>
</g>
<defs>
<linearGradient id="paint0_linear_4345_659" x1="37.1707" y1="5.66455" x2="37.1707" y2="21.3357" gradientUnits="userSpaceOnUse">
<stop stop-color="white"/>
<stop offset="1" stop-color="#00BEE7"/>
</linearGradient>
<linearGradient id="paint1_linear_4345_659" x1="51.6618" y1="5.66455" x2="51.6618" y2="21.3357" gradientUnits="userSpaceOnUse">
<stop stop-color="white"/>
<stop offset="1" stop-color="#00BEE7"/>
</linearGradient>
<linearGradient id="paint2_linear_4345_659" x1="65.4356" y1="5.48926" x2="65.4356" y2="21.5124" gradientUnits="userSpaceOnUse">
<stop stop-color="white"/>
<stop offset="1" stop-color="#00BEE7"/>
</linearGradient>
<clipPath id="clip0_4345_659">
<rect width="82" height="27" fill="white"/>
</clipPath>
</defs>
</svg>
