<svg width="30" height="41" viewBox="0 0 30 41" fill="none" xmlns="http://www.w3.org/2000/svg">
<g id="Layer_1" clip-path="url(#clip0_4345_639)">
<path id="Vector" d="M28.6264 41H0.667457C0.302106 41 0.0136719 40.6871 0.0136719 40.3136V0.686361C0.0136719 0.302807 0.311721 0 0.667457 0H25.2613C25.6266 0 25.9151 0.3129 25.9151 0.686361V11.3552L29.0879 14.7871C29.2032 14.9183 29.2705 15.0899 29.2705 15.2715V18.9456C29.2705 19.3291 28.9725 19.632 28.6168 19.632H26.665V24.921L28.9052 26.0515C29.1359 26.1625 29.2802 26.4047 29.2802 26.6772V40.3136C29.2802 40.6871 28.9821 41 28.6264 41ZM1.33086 39.6172H27.9726V27.1012L25.7324 25.9707C25.5017 25.8597 25.3574 25.6174 25.3574 25.3449V18.9355C25.3574 18.5519 25.6555 18.2491 26.0112 18.2491H27.9726V15.5441L24.7998 12.1123C24.6844 11.981 24.6171 11.8095 24.6171 11.6278V1.38282H1.33086V39.6172Z" fill="url(#paint0_linear_4345_639)"/>
<path id="Vector_2" d="M28.6263 37.8005C28.5398 37.8005 28.4532 37.7803 28.3667 37.75C19.7714 33.9347 9.51271 33.9347 0.926974 37.75C0.590467 37.9014 0.205888 37.7298 0.0712851 37.3867C-0.0729321 37.0334 0.0905141 36.6296 0.417407 36.4883C4.76315 34.5605 9.68577 33.541 14.6468 33.541C19.6079 33.541 24.5305 34.5605 28.8763 36.4883C29.2128 36.6397 29.3666 37.0435 29.2224 37.3867C29.1263 37.639 28.8859 37.8005 28.6263 37.8005Z" fill="url(#paint1_linear_4345_639)"/>
<path id="Vector_3" d="M28.6261 32.7535C28.5396 32.7535 28.4531 32.7333 28.3665 32.703C19.7712 28.8876 9.51254 28.8876 0.926807 32.703C0.599914 32.8645 0.20572 32.7131 0.061503 32.3598C-0.0923287 32.0166 0.0518885 31.6028 0.388395 31.4514C0.39801 31.4413 0.407624 31.4413 0.426853 31.4312C4.7726 29.5033 9.69522 28.4839 14.6563 28.4839C19.6174 28.4839 24.54 29.5033 28.8857 31.4312C29.2222 31.5826 29.3761 31.9863 29.2318 32.3295C29.1261 32.5819 28.8857 32.7535 28.6261 32.7535Z" fill="url(#paint2_linear_4345_639)"/>
<path id="Vector_4" d="M4.77293 9.77059C4.40758 9.77059 4.11914 9.45769 4.11914 9.08423V3.27035C4.11914 2.88679 4.41719 2.58398 4.77293 2.58398C5.12866 2.58398 5.42671 2.89688 5.42671 3.27035V9.07414C5.42671 9.45769 5.12866 9.77059 4.77293 9.77059Z" fill="url(#paint3_linear_4345_639)"/>
<path id="Vector_5" d="M8.05125 9.77067C7.68589 9.77067 7.39746 9.45777 7.39746 9.08431V4.99642C7.39746 4.61286 7.69551 4.31006 8.05125 4.31006C8.40698 4.31006 8.70503 4.62296 8.70503 4.99642V9.08431C8.70503 9.45777 8.40698 9.77067 8.05125 9.77067Z" fill="url(#paint4_linear_4345_639)"/>
<path id="Vector_6" d="M11.3296 9.77059C10.9642 9.77059 10.6758 9.45769 10.6758 9.08423V3.27035C10.6758 2.88679 10.9738 2.58398 11.3296 2.58398C11.6853 2.58398 11.9834 2.89688 11.9834 3.27035V9.07414C11.9834 9.45769 11.6853 9.77059 11.3296 9.77059Z" fill="url(#paint5_linear_4345_639)"/>
<path id="Vector_7" d="M14.6079 9.77067C14.2425 9.77067 13.9541 9.45777 13.9541 9.08431V4.99642C13.9541 4.61286 14.2522 4.31006 14.6079 4.31006C14.9636 4.31006 15.2617 4.62296 15.2617 4.99642V9.08431C15.2617 9.45777 14.9636 9.77067 14.6079 9.77067Z" fill="url(#paint6_linear_4345_639)"/>
<path id="Vector_8" d="M17.8872 9.77059C17.5218 9.77059 17.2334 9.45769 17.2334 9.08423V3.27035C17.2334 2.88679 17.5314 2.58398 17.8872 2.58398C18.2429 2.58398 18.541 2.89688 18.541 3.27035V9.07414C18.541 9.45769 18.2429 9.77059 17.8872 9.77059Z" fill="url(#paint7_linear_4345_639)"/>
<path id="Vector_9" d="M21.1655 9.77067C20.8002 9.77067 20.5117 9.45777 20.5117 9.08431V4.99642C20.5117 4.61286 20.8098 4.31006 21.1655 4.31006C21.5212 4.31006 21.8193 4.62296 21.8193 4.99642V9.08431C21.8193 9.45777 21.5212 9.77067 21.1655 9.77067Z" fill="url(#paint8_linear_4345_639)"/>
</g>
<defs>
<linearGradient id="paint0_linear_4345_639" x1="14.6469" y1="0" x2="14.6469" y2="41" gradientUnits="userSpaceOnUse">
<stop stop-color="white"/>
<stop offset="1" stop-color="#00BEE7"/>
</linearGradient>
<linearGradient id="paint1_linear_4345_639" x1="14.6475" y1="33.541" x2="14.6475" y2="37.8054" gradientUnits="userSpaceOnUse">
<stop stop-color="white"/>
<stop offset="1" stop-color="#00BEE7"/>
</linearGradient>
<linearGradient id="paint2_linear_4345_639" x1="14.643" y1="28.4839" x2="14.643" y2="32.7676" gradientUnits="userSpaceOnUse">
<stop stop-color="white"/>
<stop offset="1" stop-color="#00BEE7"/>
</linearGradient>
<linearGradient id="paint3_linear_4345_639" x1="4.77293" y1="2.58398" x2="4.77293" y2="9.77059" gradientUnits="userSpaceOnUse">
<stop stop-color="white"/>
<stop offset="1" stop-color="#00BEE7"/>
</linearGradient>
<linearGradient id="paint4_linear_4345_639" x1="8.05125" y1="4.31006" x2="8.05125" y2="9.77067" gradientUnits="userSpaceOnUse">
<stop stop-color="white"/>
<stop offset="1" stop-color="#00BEE7"/>
</linearGradient>
<linearGradient id="paint5_linear_4345_639" x1="11.3296" y1="2.58398" x2="11.3296" y2="9.77059" gradientUnits="userSpaceOnUse">
<stop stop-color="white"/>
<stop offset="1" stop-color="#00BEE7"/>
</linearGradient>
<linearGradient id="paint6_linear_4345_639" x1="14.6079" y1="4.31006" x2="14.6079" y2="9.77067" gradientUnits="userSpaceOnUse">
<stop stop-color="white"/>
<stop offset="1" stop-color="#00BEE7"/>
</linearGradient>
<linearGradient id="paint7_linear_4345_639" x1="17.8872" y1="2.58398" x2="17.8872" y2="9.77059" gradientUnits="userSpaceOnUse">
<stop stop-color="white"/>
<stop offset="1" stop-color="#00BEE7"/>
</linearGradient>
<linearGradient id="paint8_linear_4345_639" x1="21.1655" y1="4.31006" x2="21.1655" y2="9.77067" gradientUnits="userSpaceOnUse">
<stop stop-color="white"/>
<stop offset="1" stop-color="#00BEE7"/>
</linearGradient>
<clipPath id="clip0_4345_639">
<rect width="29.2857" height="41" fill="white"/>
</clipPath>
</defs>
</svg>
