<svg width="44" height="44" viewBox="0 0 44 44" fill="none" xmlns="http://www.w3.org/2000/svg">
<g id="cloud-storage_2252567 2" clip-path="url(#clip0_4345_654)">
<g id="Layer 13">
<path id="Vector" d="M35.7501 7.3335C34.8687 7.3328 33.9932 7.47553 33.1577 7.75608C32.3792 5.6643 31.0283 3.8335 29.2592 2.47258C27.4901 1.11167 25.3741 0.275457 23.1526 0.0593576C20.9311 -0.156742 18.6936 0.255978 16.6954 1.25042C14.6972 2.24487 13.0188 3.78098 11.8516 5.6835C11.4253 5.56335 10.9847 5.50167 10.5417 5.50016C9.41065 5.49806 8.31221 5.87914 7.42546 6.58129C6.53871 7.28343 5.91593 8.26523 5.65864 9.36666C3.91301 9.78269 2.38051 10.8244 1.35132 12.2944C0.322129 13.7645 -0.132306 15.5609 0.0740583 17.3435C0.280423 19.1261 1.13326 20.7712 2.47109 21.9673C3.80893 23.1633 5.53888 23.8273 7.33339 23.8335H11.0001V33.9168C11.0001 36.9262 16.534 38.5002 22.0001 38.5002C22.3997 38.5002 22.8003 38.4892 23.1981 38.4727C23.3201 38.4672 23.4401 38.4598 23.5648 38.4525C23.849 38.4369 24.1313 38.4177 24.4127 38.3929C24.542 38.3819 24.6694 38.3709 24.7977 38.3581C25.103 38.3269 25.4055 38.2902 25.7034 38.2499C25.7886 38.238 25.8748 38.2288 25.9591 38.216C26.335 38.161 26.7016 38.0971 27.0591 38.0244C27.1508 38.0061 27.2425 37.9841 27.3296 37.9648C27.5991 37.9074 27.8621 37.8463 28.1188 37.7815C28.2325 37.7512 28.3443 37.7201 28.4552 37.6898C28.6942 37.622 28.9264 37.5499 29.1519 37.4735C29.2436 37.4423 29.3426 37.4121 29.4333 37.3818C29.7386 37.2718 30.0328 37.1554 30.3069 37.0289C30.3381 37.0142 30.3646 36.9977 30.3986 36.9831C30.6387 36.8694 30.8651 36.7493 31.0778 36.6228C31.1062 36.6054 31.142 36.5907 31.1695 36.5733V39.4168C31.1695 40.5113 27.5138 42.1668 22.0028 42.1668C16.4918 42.1668 12.8361 40.5113 12.8361 39.4168C12.8361 39.1737 12.7396 38.9406 12.5677 38.7686C12.3958 38.5967 12.1626 38.5002 11.9195 38.5002C11.6764 38.5002 11.4432 38.5967 11.2713 38.7686C11.0994 38.9406 11.0028 39.1737 11.0028 39.4168C11.0028 42.4262 16.5367 44.0002 22.0028 44.0002C27.4689 44.0002 33.0028 42.4262 33.0028 39.4168V22.9168C33.0028 19.9074 27.4689 18.3335 22.0028 18.3335C17.1243 18.3335 12.2027 19.5912 11.199 22.0002H7.33339C5.9472 21.9898 4.61606 21.4563 3.60633 20.5065C2.5966 19.5567 1.98276 18.2607 1.88764 16.8777C1.79253 15.4947 2.22314 14.1269 3.09333 13.0478C3.96352 11.9687 5.20909 11.258 6.58081 11.0579C6.78595 11.0296 6.97545 10.9326 7.11844 10.7828C7.26142 10.633 7.34947 10.4392 7.36823 10.2329C7.4113 9.72296 7.57718 9.23101 7.85168 8.79908C8.12618 8.36716 8.50115 8.00809 8.94457 7.75257C9.38798 7.49704 9.88666 7.35264 10.398 7.3317C10.9093 7.31076 11.4182 7.41391 11.881 7.63233C12.0939 7.7296 12.336 7.74172 12.5575 7.66622C12.7791 7.59071 12.9634 7.43329 13.0726 7.22624C14.0104 5.43681 15.4646 3.97071 17.2463 3.01835C19.0281 2.06598 21.055 1.67137 23.0638 1.88576C25.0727 2.10015 26.9707 2.91363 28.5113 4.22056C30.0519 5.52748 31.1639 7.26746 31.703 9.21449C31.7387 9.34408 31.8025 9.46423 31.8899 9.5664C31.9773 9.66858 32.086 9.75029 32.2085 9.80575C32.3309 9.86121 32.4641 9.88905 32.5985 9.88731C32.7329 9.88556 32.8653 9.85427 32.9863 9.79566C33.8483 9.38016 34.7932 9.16517 35.7501 9.16683C37.4519 9.16683 39.084 9.84287 40.2873 11.0462C41.4907 12.2496 42.1667 13.8817 42.1667 15.5835C42.1667 17.2853 41.4907 18.9174 40.2873 20.1208C39.084 21.3241 37.4519 22.0002 35.7501 22.0002C35.5069 22.0002 35.2738 22.0967 35.1019 22.2686C34.93 22.4406 34.8334 22.6737 34.8334 22.9168C34.8334 23.1599 34.93 23.3931 35.1019 23.565C35.2738 23.7369 35.5069 23.8335 35.7501 23.8335C37.9381 23.8335 40.0365 22.9643 41.5837 21.4171C43.1309 19.8699 44.0001 17.7715 44.0001 15.5835C44.0001 13.3955 43.1309 11.297 41.5837 9.74986C40.0365 8.20269 37.9381 7.3335 35.7501 7.3335ZM12.8334 33.9168V31.0678C12.8618 31.0852 12.8966 31.0999 12.9251 31.1173C13.1441 31.2475 13.377 31.3722 13.6254 31.4886C13.6474 31.4987 13.6657 31.5106 13.6877 31.5207C13.9728 31.6517 14.279 31.7727 14.5971 31.8873C14.6466 31.9057 14.6988 31.9212 14.7492 31.9387C15.0456 32.0401 15.3533 32.1348 15.6723 32.2228L15.7447 32.243C17.789 32.7613 19.8912 33.0158 22.0001 33.0002C24.1087 33.0154 26.2106 32.7606 28.2545 32.2421L28.3269 32.2219C28.6459 32.1345 28.9536 32.0398 29.25 31.9377C29.3004 31.9203 29.3526 31.9047 29.4021 31.8864C29.7202 31.7727 30.0264 31.6517 30.3115 31.5197C30.3335 31.5097 30.3518 31.4977 30.3738 31.4877C30.6222 31.3712 30.8551 31.2466 31.0741 31.1164C31.1035 31.099 31.1383 31.0843 31.1658 31.0669V33.9168C31.1658 35.0113 27.5101 36.6668 21.9991 36.6668C16.4881 36.6668 12.8334 35.0113 12.8334 33.9168ZM22.0001 20.1668C27.5111 20.1668 31.1667 21.8223 31.1667 22.9168V28.4168C31.1667 29.5113 27.5111 31.1668 22.0001 31.1668C16.4891 31.1668 12.8334 29.5113 12.8334 28.4168V25.5678C12.8618 25.5852 12.8976 25.5999 12.9251 25.6173C13.1377 25.7438 13.3641 25.8639 13.6043 25.9776C13.6355 25.9922 13.6621 26.0087 13.696 26.0234C13.971 26.1499 14.2643 26.2663 14.5696 26.3763C14.6612 26.4093 14.7529 26.4396 14.851 26.468C15.0765 26.5444 15.3087 26.6165 15.5476 26.6843C15.6586 26.7155 15.7704 26.7467 15.8841 26.776C16.1407 26.842 16.4038 26.9031 16.6733 26.9593C16.765 26.9786 16.8511 27.0006 16.9437 27.0189C17.3031 27.091 17.6697 27.1549 18.0437 27.2105C18.1281 27.2233 18.2142 27.2325 18.2995 27.2444C18.5983 27.2847 18.8999 27.3214 19.2051 27.3526C19.3335 27.3654 19.4609 27.3764 19.5901 27.3874C19.8716 27.4122 20.1539 27.4314 20.4381 27.447C20.5591 27.4543 20.6791 27.4617 20.8047 27.4672C21.2026 27.4837 21.6031 27.4947 22.0028 27.4947C22.6445 27.4947 23.2678 27.4727 23.8811 27.4323C23.9324 27.4323 23.981 27.4213 24.0323 27.4177C24.5942 27.3773 25.1442 27.326 25.6768 27.2499C25.7758 27.2362 25.8675 27.216 25.9656 27.2013C26.4294 27.1317 26.8822 27.0556 27.3222 26.9612C27.5056 26.9217 27.6779 26.8695 27.8585 26.8264C28.1335 26.7577 28.4213 26.6972 28.6835 26.6183C28.7009 26.6183 28.7128 26.6 28.7293 26.5945C28.8008 26.5725 28.8833 26.5569 28.953 26.5349C29.0676 26.4981 29.1739 26.4391 29.2658 26.3613C29.3577 26.2834 29.4333 26.1882 29.4883 26.0812C29.5434 25.9741 29.5769 25.8572 29.5868 25.7372C29.5967 25.6172 29.5828 25.4964 29.5461 25.3817C29.5093 25.2671 29.4503 25.1608 29.3724 25.0689C29.2946 24.9771 29.1994 24.9014 29.0923 24.8464C28.9852 24.7913 28.8683 24.7579 28.7483 24.748C28.6283 24.7381 28.5076 24.7519 28.3929 24.7887C28.1069 24.8803 27.7888 24.9546 27.4762 25.0325C27.2782 25.082 27.0894 25.137 26.8822 25.181C26.6072 25.2397 26.3084 25.2846 26.0169 25.3322C25.7923 25.3698 25.5769 25.4138 25.345 25.4441C25.026 25.4872 24.6914 25.5128 24.3605 25.5431C24.1423 25.5632 23.9306 25.5917 23.7087 25.6054C23.1496 25.6412 22.5794 25.6613 22.0028 25.6613C16.4918 25.6613 12.8361 24.0058 12.8361 22.9113C12.8361 21.8168 16.4891 20.1668 22.0001 20.1668Z" fill="url(#paint0_linear_4345_654)"/>
<path id="Vector_2" d="M17.4166 16.5002C17.6597 16.5002 17.8928 16.4036 18.0647 16.2317C18.2367 16.0598 18.3332 15.8266 18.3332 15.5835V10.463L19.5185 11.6483C19.6914 11.8152 19.9229 11.9076 20.1633 11.9055C20.4036 11.9035 20.6335 11.807 20.8035 11.6371C20.9734 11.4671 21.0698 11.2372 21.0719 10.9969C21.074 10.7565 20.9816 10.525 20.8146 10.3521L18.0646 7.60209C18.0564 7.59384 18.0454 7.59109 18.0371 7.58375C17.959 7.50703 17.8677 7.44494 17.7676 7.40042C17.7603 7.40042 17.7511 7.40042 17.7429 7.39492C17.6507 7.36061 17.5534 7.34172 17.4551 7.339C17.4244 7.33838 17.3938 7.33991 17.3634 7.34359C17.2863 7.34813 17.2102 7.36293 17.137 7.38759C17.0008 7.42798 16.8765 7.50098 16.7749 7.60026L14.0249 10.3503C13.8579 10.5231 13.7655 10.7547 13.7676 10.995C13.7697 11.2354 13.8661 11.4653 14.0361 11.6353C14.206 11.8052 14.4359 11.9016 14.6763 11.9037C14.9166 11.9058 15.1482 11.8134 15.3211 11.6464L16.4999 10.463V15.5835C16.4999 15.8266 16.5965 16.0598 16.7684 16.2317C16.9403 16.4036 17.1734 16.5002 17.4166 16.5002Z" fill="url(#paint1_linear_4345_654)"/>
<path id="Vector_3" d="M26.5831 7.3335C26.34 7.3335 26.1069 7.43007 25.935 7.60198C25.763 7.77389 25.6665 8.00705 25.6665 8.25016V13.3707L24.4812 12.1854C24.3083 12.0184 24.0768 11.926 23.8364 11.9281C23.5961 11.9302 23.3662 12.0266 23.1962 12.1966C23.0263 12.3665 22.9299 12.5964 22.9278 12.8368C22.9257 13.0771 23.0181 13.3087 23.1851 13.4816L25.9351 16.2316C25.9433 16.2398 25.9543 16.2426 25.9626 16.2499C26.0407 16.3266 26.132 16.3887 26.2321 16.4332C26.3436 16.4784 26.4629 16.5011 26.5831 16.5002C26.8261 16.4993 27.0589 16.4028 27.2312 16.2316L29.9812 13.4816C30.1482 13.3087 30.2406 13.0771 30.2385 12.8368C30.2364 12.5964 30.14 12.3665 29.9701 12.1966C29.8001 12.0266 29.5702 11.9302 29.3298 11.9281C29.0895 11.926 28.8579 12.0184 28.6851 12.1854L27.4998 13.3707V8.25016C27.4998 8.00705 27.4032 7.77389 27.2313 7.60198C27.0594 7.43007 26.8263 7.3335 26.5831 7.3335Z" fill="url(#paint2_linear_4345_654)"/>
</g>
</g>
<defs>
<linearGradient id="paint0_linear_4345_654" x1="22.0127" y1="0.00341797" x2="22.0127" y2="44.0002" gradientUnits="userSpaceOnUse">
<stop stop-color="white"/>
<stop offset="1" stop-color="#00BEE7"/>
</linearGradient>
<linearGradient id="paint1_linear_4345_654" x1="17.4198" y1="7.33887" x2="17.4198" y2="16.5002" gradientUnits="userSpaceOnUse">
<stop stop-color="white"/>
<stop offset="1" stop-color="#00BEE7"/>
</linearGradient>
<linearGradient id="paint2_linear_4345_654" x1="26.5831" y1="7.3335" x2="26.5831" y2="16.5002" gradientUnits="userSpaceOnUse">
<stop stop-color="white"/>
<stop offset="1" stop-color="#00BEE7"/>
</linearGradient>
<clipPath id="clip0_4345_654">
<rect width="44" height="44" fill="white"/>
</clipPath>
</defs>
</svg>
