<svg width="58" height="46" viewBox="0 0 58 46" fill="none" xmlns="http://www.w3.org/2000/svg">
<g id="Layer_1" clip-path="url(#clip0_4345_588)">
<path id="Vector" fill-rule="evenodd" clip-rule="evenodd" d="M26.5778 8.33728C26.5778 9.10666 27.0604 9.58012 27.6982 9.79959C27.942 9.88097 28.1563 9.70835 28.1563 9.45436V7.2276C28.1563 6.981 28.3606 6.77633 28.6069 6.77633H29.2866C29.5328 6.77633 29.7372 6.97854 29.7372 7.2276V9.61218C29.7372 9.92536 29.9293 10.167 30.2469 10.2114C30.4833 10.2435 30.7173 10.278 30.9512 10.31C31.1581 10.3396 31.3157 10.1498 31.3157 9.95248V7.2276C31.3157 6.981 31.5176 6.77633 31.7639 6.77633H32.4435C32.6898 6.77633 32.8942 6.97854 32.8942 7.2276V10.1177C32.8942 10.3594 33.0789 10.6158 33.3251 10.6479C33.5689 10.6824 33.8127 10.7169 34.0565 10.7515C34.2978 10.786 34.4751 10.6084 34.4751 10.3692V7.23006C34.4751 6.98347 34.677 6.77879 34.9258 6.77879H35.6054C35.8517 6.77879 36.0536 6.981 36.0536 7.23006V10.5616C36.0536 10.8328 36.2432 11.0646 36.5141 11.1041C38.5531 11.3926 40.592 11.6811 42.6286 11.9696C42.7517 11.9869 42.865 11.9622 42.9536 11.9031C43.0743 11.8266 43.1506 11.6885 43.1506 11.5184V0.456075C43.1506 0.293321 43.0817 0.162626 42.9708 0.081249C42.8797 0.0171341 42.7591 -0.0149234 42.6286 0.00480426C40.592 0.290856 38.5531 0.581839 36.5141 0.870356C36.2432 0.909811 36.0536 1.13915 36.0536 1.41287V4.74438C36.0536 4.99097 35.8517 5.19565 35.6054 5.19565H34.9258C34.6795 5.19565 34.4751 4.99344 34.4751 4.74438V1.60521C34.4751 1.36601 34.2978 1.18846 34.0565 1.22299C33.8127 1.25751 33.5689 1.29203 33.3251 1.32656C33.0789 1.35862 32.8942 1.61508 32.8942 1.85674V4.74684C32.8942 4.99344 32.6922 5.19811 32.4435 5.19811H31.7639C31.5176 5.19811 31.3157 4.99591 31.3157 4.74684V2.02196C31.3157 1.82468 31.1581 1.6348 30.9512 1.66439C30.7173 1.69645 30.4809 1.73098 30.2469 1.76303C29.9293 1.80495 29.7372 2.04662 29.7372 2.36226V4.74684C29.7372 4.99344 29.5328 5.19565 29.2866 5.19565H28.6069C28.3606 5.19565 28.1563 4.99344 28.1563 4.74684V2.51762C28.1563 2.26362 27.942 2.09101 27.6982 2.17238C27.058 2.39185 26.5778 2.86532 26.5778 3.6347V4.28324C22.1822 4.28324 17.7693 5.00824 13.5411 6.47055C9.62817 7.82436 5.87281 9.80699 2.44004 12.4184C-0.54208 14.6748 -0.756321 18.9828 1.60278 21.7669C4.33619 24.985 8.02506 24.3167 11.1155 22.154C15.75 18.9113 21.1528 17.2665 26.5482 17.2616C31.8648 17.2591 37.1888 18.825 41.779 21.9666C43.2762 23.0023 43.2614 25.1305 42.0646 26.4054C40.789 27.7666 39.149 27.626 37.6986 26.6544C34.2633 24.4819 30.3873 23.424 26.5408 23.4339C21.1774 23.4487 15.8608 25.5349 11.8543 29.5495C11.1919 30.2153 11.1968 31.2954 11.8617 31.9587C12.5266 32.6221 13.6052 32.6171 14.2676 31.9513C17.5206 28.6913 21.9433 26.8443 26.5408 26.8443C29.7175 26.8394 32.9237 27.7 35.7704 29.473C38.7919 31.251 41.9661 31.4926 44.5469 28.7406C46.906 26.2278 47.0192 21.4833 44.0667 19.4094C38.819 15.7006 32.6799 13.8512 26.5507 13.8561C20.3623 13.8635 14.174 15.7623 8.90665 19.5426C6.72731 21.0715 5.006 20.6252 4.10225 19.4957C3.20343 18.3737 3.1 16.253 4.27463 15.3135C7.49316 12.8229 11.0023 10.9463 14.6493 9.68616C18.5154 8.34714 22.554 7.68627 26.5802 7.68627V8.33481L26.5778 8.33728ZM26.5778 33.0092C30.1558 33.0092 33.0641 35.9215 33.0641 39.5021C33.0641 43.0826 30.1608 45.9974 26.5778 45.9974C22.9948 45.9974 20.0915 43.0826 20.0915 39.5021C20.0915 35.9215 23.0046 33.0092 26.5778 33.0092ZM26.5778 36.427C24.8762 36.427 23.5045 37.7981 23.5045 39.5021C23.5045 41.2061 24.8737 42.5796 26.5778 42.5796C28.2818 42.5796 29.651 41.2036 29.651 39.5021C29.651 37.8006 28.2794 36.427 26.5778 36.427ZM57.9997 3.9676V3.43002C57.9997 3.26727 57.8667 3.13164 57.7017 3.13164H53.3455C53.183 3.13164 53.0475 3.2648 53.0475 3.43002V3.9676C53.0475 4.13282 53.183 4.26598 53.3455 4.26598H57.7017C57.8667 4.26598 57.9997 4.13282 57.9997 3.9676ZM57.9997 6.23135V5.69624C57.9997 5.53102 57.8667 5.39786 57.7017 5.39786H53.3455C53.183 5.39786 53.0475 5.53102 53.0475 5.69624V6.23135C53.0475 6.39657 53.183 6.52973 53.3455 6.52973H57.7017C57.8667 6.52973 57.9997 6.39657 57.9997 6.23135ZM57.9997 8.49757V7.96245C57.9997 7.7997 57.8667 7.66407 57.7017 7.66407H53.3455C53.183 7.66407 53.0475 7.7997 53.0475 7.96245V8.49757C53.0475 8.66279 53.183 8.79595 53.3455 8.79595H57.7017C57.8667 8.79595 57.9997 8.66032 57.9997 8.49757ZM57.9997 10.3964V11.4962C57.9997 11.7551 57.7904 11.9647 57.5318 11.9647H45.2093C44.9507 11.9647 44.7389 11.7551 44.7389 11.4962V0.478268C44.7389 0.219343 44.9507 0.00973617 45.2093 0.00973617H57.5318C57.7904 0.00973617 57.9997 0.219343 57.9997 0.478268V1.5337C57.9997 1.79262 57.7904 2.00223 57.5318 2.00223H52.5649C52.2078 2.00223 51.9172 2.29568 51.9172 2.65078V3.4029C51.9172 4.00706 51.4321 4.41394 50.8559 4.46079C48.5362 4.65807 47.2015 4.7715 46.8493 4.80356C46.443 4.83808 46.2362 5.10934 46.2362 5.50143V6.42863C46.2362 6.82072 46.443 7.09197 46.8493 7.12649C47.2015 7.15609 48.5362 7.27199 50.8559 7.46926C51.4149 7.51612 51.9172 7.91807 51.9172 8.51236V9.27681C51.9172 9.63437 52.2103 9.92536 52.5649 9.92536H57.5318C57.7904 9.92536 57.9997 10.1374 57.9997 10.3939V10.3964Z" fill="url(#paint0_linear_4345_588)"/>
</g>
<defs>
<linearGradient id="paint0_linear_4345_588" x1="28.9993" y1="-0.000976563" x2="28.9993" y2="45.9974" gradientUnits="userSpaceOnUse">
<stop stop-color="#00AEE8"/>
<stop offset="1" stop-color="#ABEAFF"/>
</linearGradient>
<clipPath id="clip0_4345_588">
<rect width="58" height="46" fill="white"/>
</clipPath>
</defs>
</svg>
