<svg width="35" height="34" viewBox="0 0 35 34" fill="none" xmlns="http://www.w3.org/2000/svg">
<path d="M1 1H3.36775C4.239 1 4.99921 1.599 5.22471 2.4582L5.879 4.9677M5.879 4.9677C15.3955 4.69507 24.9029 5.77652 34.128 8.18097C32.7203 12.4665 31.0479 16.6298 29.1328 20.6464H9.96875M5.879 4.9677L9.96875 20.6464M9.96875 20.6464C8.60952 20.6464 7.30595 21.1983 6.34483 22.1809C5.3837 23.1634 4.84375 24.4959 4.84375 25.8854H31.75M7.40625 31.1245C7.40625 31.4718 7.27126 31.805 7.03098 32.0506C6.7907 32.2962 6.46481 32.4342 6.125 32.4342C5.78519 32.4342 5.4593 32.2962 5.21902 32.0506C4.97874 31.805 4.84375 31.4718 4.84375 31.1245C4.84375 30.7771 4.97874 30.4439 5.21902 30.1983C5.4593 29.9527 5.78519 29.8147 6.125 29.8147C6.46481 29.8147 6.7907 29.9527 7.03098 30.1983C7.27126 30.4439 7.40625 30.7771 7.40625 31.1245ZM29.1875 31.1245C29.1875 31.4718 29.0525 31.805 28.8122 32.0506C28.572 32.2962 28.2461 32.4342 27.9062 32.4342C27.5664 32.4342 27.2405 32.2962 27.0003 32.0506C26.76 31.805 26.625 31.4718 26.625 31.1245C26.625 30.7771 26.76 30.4439 27.0003 30.1983C27.2405 29.9527 27.5664 29.8147 27.9062 29.8147C28.2461 29.8147 28.572 29.9527 28.8122 30.1983C29.0525 30.4439 29.1875 30.7771 29.1875 31.1245Z" stroke="white" stroke-width="1.5" stroke-linecap="round" stroke-linejoin="round"/>
</svg>
