<svg width="130" height="36" viewBox="0 0 130 36" fill="none" xmlns="http://www.w3.org/2000/svg">
<path d="M62 0V36.0038" stroke="#00ABC8" stroke-width="1.24" stroke-miterlimit="2.61"/>
<path fill-rule="evenodd" clip-rule="evenodd" d="M13.0976 20.2232C14.61 20.2232 15.8329 21.4348 15.8329 22.9223C15.8329 24.4146 14.605 25.6213 13.0976 25.6213C11.5852 25.6213 10.3623 24.4146 10.3623 22.9223C10.3623 21.4299 11.5902 20.2232 13.0976 20.2232ZM13.2573 13.2145C7.84159 13.2145 3.41416 17.5833 3.41416 22.9272C3.41416 28.2711 7.84159 32.6398 13.2573 32.6398H24.7427C30.1584 32.6398 34.5858 28.2711 34.5858 22.9272C34.5858 17.5833 30.1584 13.2145 24.7427 13.2145H13.2573ZM14.4852 9.84564V5.02871C15.2938 4.56081 15.8329 3.69396 15.8329 2.70398C15.8329 1.21162 14.605 0.00492528 13.0976 0.00492528C11.5902 0.00492528 10.3623 1.21654 10.3623 2.70398C10.3623 3.69396 10.9014 4.56081 11.71 5.02871V9.93429C5.13621 10.6977 0 16.2485 0 22.9223C0 30.1181 5.9648 36.0038 13.2573 36.0038H24.7427C32.0352 36.0038 38 30.1181 38 22.9223C38 16.2436 32.8638 10.6977 26.295 9.92937V5.02379C27.1036 4.55589 27.6427 3.68904 27.6427 2.69905C27.6427 1.20669 26.4148 0 24.9074 0C23.4 0 22.1721 1.21162 22.1721 2.69905C22.1721 3.68904 22.7112 4.55589 23.5198 5.02379V9.84071H14.4902L14.4852 9.84564ZM24.9024 20.2281C26.4148 20.2281 27.6377 21.4397 27.6377 22.9272C27.6377 24.4195 26.4098 25.6262 24.9024 25.6262C23.39 25.6262 22.1671 24.4195 22.1671 22.9272C22.1671 21.4348 23.395 20.2281 24.9024 20.2281Z" fill="#00ABC8"/>
<path fill-rule="evenodd" clip-rule="evenodd" d="M41.3666 9.9234L39.8388 10.1549L39.3078 9.42726C39.0173 9.49341 38.7318 9.52648 38.4613 9.52648C37.9854 9.52648 37.5346 9.44143 37.1239 9.27605C36.7081 9.11067 36.3424 8.86969 36.0168 8.55783C35.6913 8.24597 35.4408 7.89158 35.2655 7.49467C35.0902 7.09776 35 6.6725 35 6.22361C35 5.77472 35.0902 5.34946 35.2655 4.94782C35.4408 4.54618 35.6913 4.19652 36.0068 3.88939C36.3224 3.58698 36.6981 3.35072 37.1239 3.18062C37.5546 3.01524 38.0005 2.93019 38.4663 2.93019C38.9321 2.93019 39.388 3.01524 39.8087 3.18062C40.2295 3.346 40.6002 3.58226 40.9208 3.88466C41.2363 4.18707 41.4868 4.54146 41.6621 4.94782C41.8424 5.35418 41.9276 5.77945 41.9276 6.22361C41.9276 6.40789 41.9126 6.578 41.8925 6.73865C41.8675 6.8993 41.8224 7.06469 41.7673 7.23007C41.6621 7.5561 41.5068 7.84906 41.3015 8.11839C41.0961 8.38772 40.8607 8.62398 40.5852 8.82716L41.3666 9.9234ZM40.2996 6.21416C40.2996 5.9023 40.2195 5.60934 40.0542 5.34001C39.8889 5.06595 39.6635 4.85332 39.378 4.69266C39.0924 4.53673 38.7869 4.45641 38.4563 4.45641C38.1257 4.45641 37.8201 4.53201 37.5396 4.68794C37.2591 4.84387 37.0337 5.0565 36.8684 5.33056C36.6981 5.60462 36.6179 5.89757 36.6179 6.20943C36.6179 6.52129 36.6881 6.7859 36.8333 7.04106C36.9786 7.29622 37.174 7.4994 37.4244 7.66005C37.6749 7.82071 37.9554 7.91521 38.2709 7.95301L37.7199 7.19699L39.2527 6.95601L39.6685 7.53247C39.8638 7.37182 40.0141 7.17809 40.1293 6.94656C40.2445 6.71502 40.3046 6.46932 40.3046 6.20943L40.2996 6.21416ZM43.8912 5.27858V7.66478C43.8912 7.84906 43.9463 7.99081 44.0515 8.09004C44.1617 8.18454 44.3019 8.23179 44.4772 8.23179C44.5724 8.23179 44.6525 8.22234 44.7177 8.20344C44.7828 8.18454 44.8429 8.14674 44.903 8.09477C45.0082 7.99554 45.0583 7.85378 45.0583 7.66478V5.27858H46.6913V7.74511C46.6913 8.29795 46.4909 8.73266 46.0952 9.04452C45.6995 9.3611 45.1585 9.51703 44.4822 9.51703C44.0364 9.51703 43.6507 9.44616 43.3151 9.30913C42.9795 9.1721 42.719 8.96892 42.5387 8.69958C42.4485 8.56728 42.3834 8.4208 42.3333 8.26015C42.2883 8.09949 42.2632 7.92939 42.2632 7.74511V5.27858H43.8862H43.8912ZM49.8219 5.2266C50.2828 5.2266 50.6785 5.32583 50.9991 5.52901C51.3197 5.72747 51.5651 5.9968 51.7304 6.32284C51.9007 6.64887 51.9809 6.99853 51.9809 7.37654C51.9809 7.75456 51.9007 8.09004 51.7354 8.41135C51.5701 8.73266 51.3297 8.99727 51.0041 9.20045C50.6785 9.40363 50.2828 9.50758 49.8219 9.50758C49.311 9.50758 48.8752 9.38946 48.5196 9.16265V9.42253H47.077V2.76953H48.5196V5.55736C48.6648 5.45814 48.8352 5.37781 49.0305 5.31638C49.1257 5.28803 49.2309 5.26441 49.3611 5.25023C49.4863 5.23606 49.6416 5.2266 49.827 5.2266H49.8219ZM48.5346 7.33874C48.5346 7.57028 48.6248 7.76873 48.8051 7.93884C48.9854 8.10894 49.1958 8.19399 49.4312 8.19399C49.6667 8.19399 49.877 8.10894 50.0574 7.93884C50.2327 7.76873 50.3229 7.57028 50.3229 7.34347C50.3229 7.19226 50.2828 7.05051 50.2026 6.91821C50.1225 6.7859 50.0173 6.68195 49.872 6.60635C49.7318 6.52602 49.5815 6.48822 49.4262 6.48822C49.2709 6.48822 49.1257 6.52602 48.9804 6.60162C48.8402 6.67722 48.725 6.78118 48.6448 6.91821C48.5647 7.05523 48.5196 7.19699 48.5196 7.34347L48.5346 7.33874ZM57 7.34819C57 7.73093 56.9098 8.09004 56.7345 8.4208C56.5592 8.75629 56.2887 9.02089 55.9281 9.2288C55.5674 9.43671 55.1316 9.53593 54.6307 9.53593C54.1298 9.53593 53.694 9.43671 53.3333 9.23353C52.9727 9.03034 52.6972 8.76101 52.5118 8.4208C52.3265 8.08059 52.2313 7.72621 52.2313 7.34347C52.2313 6.96073 52.3265 6.61107 52.5068 6.27559C52.6922 5.9401 52.9627 5.66604 53.3233 5.45814C53.684 5.25023 54.1198 5.14628 54.6257 5.14628C55.1316 5.14628 55.5624 5.25023 55.923 5.45341C56.2787 5.66132 56.5492 5.93065 56.7295 6.26614C56.9048 6.60162 56.995 6.96073 56.995 7.34347L57 7.34819ZM53.724 7.35764C53.724 7.58918 53.8142 7.78763 53.9945 7.95774C54.1749 8.12784 54.3852 8.21289 54.6157 8.21289C54.8661 8.21289 55.0765 8.12784 55.2518 7.96246C55.4271 7.79708 55.5123 7.5939 55.5123 7.35764C55.5123 7.12139 55.4271 6.91348 55.2568 6.7481C55.0815 6.58272 54.8711 6.50239 54.6157 6.50239C54.4604 6.50239 54.3151 6.54019 54.1749 6.6158C54.0346 6.6914 53.9244 6.79535 53.8443 6.93238C53.7641 7.06941 53.719 7.21116 53.719 7.35764H53.724Z" fill="white"/>
<path fill-rule="evenodd" clip-rule="evenodd" d="M129.699 27.6021C129.766 27.5416 129.801 27.4661 129.801 27.3905C129.801 27.2394 129.674 27.1134 129.511 27.1134C129.434 27.1134 129.373 27.1487 129.322 27.189C128.996 27.4862 128.599 27.6928 128.053 27.6928C127.269 27.6928 126.596 27.1638 126.504 26.2167H129.694C129.857 26.2167 130 26.0908 130 25.9144C130 24.7608 129.261 23.7079 127.956 23.7079C126.739 23.7079 125.842 24.7205 125.842 25.9749V25.99C125.842 27.3401 126.83 28.257 128.043 28.257C128.792 28.257 129.287 27.995 129.704 27.6021M126.509 25.7381C126.596 24.8867 127.172 24.257 127.941 24.257C128.818 24.257 129.281 24.9472 129.348 25.7381H126.509ZM122.85 27.8691C122.85 28.0555 122.993 28.1966 123.181 28.1966C123.37 28.1966 123.508 28.0454 123.508 27.8691V26.388C123.508 25.1336 124.206 24.4988 125.057 24.3981C125.225 24.3729 125.347 24.2469 125.347 24.0706C125.347 23.8943 125.22 23.7432 125.021 23.7432C124.466 23.7432 123.829 24.1814 123.503 24.9069V24.0908C123.503 23.9044 123.36 23.7633 123.171 23.7633C122.983 23.7633 122.845 23.9144 122.845 24.0908V27.8741L122.85 27.8691ZM121.377 24.0857C121.377 23.8993 121.235 23.7583 121.051 23.7583C120.868 23.7583 120.725 23.8993 120.725 24.0857V26.2923C120.725 27.1084 120.154 27.6575 119.405 27.6575C118.656 27.6575 118.187 27.1537 118.187 26.3427V24.0857C118.187 23.8993 118.034 23.7583 117.856 23.7583C117.668 23.7583 117.53 23.8993 117.53 24.0857V26.5039C117.53 27.5416 118.152 28.2469 119.217 28.2469C119.976 28.2469 120.424 27.8691 120.725 27.3955V27.8691C120.725 28.0555 120.868 28.1966 121.051 28.1966C121.24 28.1966 121.377 28.0454 121.377 27.8691V24.0857ZM115.634 28.2318C115.889 28.2318 116.093 28.1915 116.281 28.116C116.393 28.0756 116.47 27.9799 116.47 27.8641C116.47 27.7129 116.343 27.587 116.19 27.587C116.139 27.587 116.021 27.6474 115.787 27.6474C115.344 27.6474 115.048 27.456 115.048 26.922V24.3779H116.19C116.353 24.3779 116.49 24.252 116.49 24.0908C116.49 23.9396 116.353 23.8036 116.19 23.8036H115.048V22.7759C115.048 22.5996 114.895 22.4484 114.717 22.4484C114.539 22.4484 114.391 22.5996 114.391 22.7759V23.8036H114.034C113.881 23.8036 113.744 23.9296 113.744 24.0908C113.744 24.252 113.881 24.3779 114.034 24.3779H114.391V27.0076C114.391 27.8943 114.926 28.2369 115.634 28.2369V28.2318ZM108.907 27.8691C108.907 28.0555 109.05 28.1966 109.239 28.1966C109.427 28.1966 109.565 28.0555 109.565 27.8691V25.6625C109.565 24.8464 110.125 24.2973 110.885 24.2973C111.644 24.2973 112.103 24.8011 112.103 25.6122V27.8691C112.103 28.0555 112.245 28.1966 112.434 28.1966C112.622 28.1966 112.76 28.0555 112.76 27.8691V25.451C112.76 24.4132 112.138 23.7079 111.073 23.7079C110.314 23.7079 109.855 24.0857 109.565 24.5593V24.0857C109.565 23.8993 109.422 23.7583 109.234 23.7583C109.045 23.7583 108.907 23.9094 108.907 24.0857V27.8691ZM107.45 27.5971C107.516 27.5366 107.552 27.461 107.552 27.3855C107.552 27.2343 107.424 27.1084 107.261 27.1084C107.185 27.1084 107.124 27.1437 107.073 27.184C106.747 27.4812 106.349 27.6877 105.804 27.6877C105.019 27.6877 104.346 27.1588 104.255 26.2117H107.44C107.603 26.2117 107.745 26.0857 107.745 25.9094C107.745 24.7557 107.007 23.7029 105.702 23.7029C104.484 23.7029 103.587 24.7154 103.587 25.9699V25.985C103.587 27.3351 104.576 28.252 105.789 28.252C106.538 28.252 107.032 27.99 107.45 27.5971ZM104.255 25.7331C104.341 24.8817 104.917 24.252 105.687 24.252C106.563 24.252 107.027 24.9421 107.093 25.7331H104.255ZM100.494 28.2167H100.529C100.723 28.2167 100.845 28.1059 100.922 27.9396L103.23 22.6651C103.246 22.6248 103.256 22.5794 103.256 22.529C103.256 22.3628 103.113 22.2066 102.925 22.2066C102.772 22.2066 102.649 22.3225 102.593 22.4434L100.524 27.3452L98.4604 22.4585C98.3992 22.3175 98.282 22.2066 98.1088 22.2066C97.9202 22.2066 97.7673 22.3678 97.7673 22.5341C97.7673 22.5945 97.7775 22.6348 97.803 22.6852L100.106 27.9346C100.173 28.1008 100.3 28.2117 100.499 28.2117L100.494 28.2167ZM92.0801 27.6626C91.2596 27.6626 90.485 26.9875 90.485 25.9749V25.9598C90.485 24.9673 91.2596 24.2822 92.0801 24.2822C92.9006 24.2822 93.6293 24.9371 93.6293 25.9648V25.9799C93.6293 27.0328 92.9312 27.6575 92.0801 27.6575V27.6626ZM89.8531 29.2142C89.8531 29.4006 89.9958 29.5416 90.1844 29.5416C90.3729 29.5416 90.5105 29.4006 90.5105 29.2142V27.32C90.852 27.8086 91.382 28.2469 92.1973 28.2469C93.2624 28.2469 94.302 27.4056 94.302 25.9799V25.9648C94.302 24.5341 93.2522 23.7079 92.1973 23.7079C91.387 23.7079 90.8672 24.1563 90.5105 24.6751V24.0857C90.5105 23.8993 90.3678 23.7583 90.1793 23.7583C89.9907 23.7583 89.8531 23.8993 89.8531 24.0857V29.2192V29.2142ZM88.3804 24.0807C88.3804 23.8943 88.2377 23.7532 88.0542 23.7532C87.8657 23.7532 87.7281 23.8943 87.7281 24.0807V26.2872C87.7281 27.1034 87.1573 27.6525 86.4082 27.6525C85.6591 27.6525 85.1902 27.1487 85.1902 26.3376V24.0807C85.1902 23.8943 85.0373 23.7532 84.859 23.7532C84.6806 23.7532 84.5328 23.8943 84.5328 24.0807V26.4988C84.5328 27.5366 85.1546 28.2419 86.2196 28.2419C86.9789 28.2419 87.4325 27.8641 87.7281 27.3905V27.8641C87.7281 28.0505 87.8708 28.1915 88.0542 28.1915C88.2377 28.1915 88.3804 28.0404 88.3804 27.8641V24.0807ZM81.1286 27.6726C80.2012 27.6726 79.4979 26.9119 79.4979 25.9799V25.9648C79.4979 25.0479 80.1553 24.2772 81.1083 24.2772C82.0612 24.2772 82.7441 25.0429 82.7441 25.9799V25.995C82.7441 26.9119 82.0816 27.6726 81.1236 27.6726H81.1286ZM81.1134 28.252C82.4434 28.252 83.4219 27.2091 83.4219 25.9749V25.9598C83.4219 24.7306 82.4485 23.7029 81.1286 23.7029C79.8088 23.7029 78.8252 24.7457 78.8252 25.9799V25.995C78.8252 27.2243 79.7884 28.252 81.1083 28.252H81.1134ZM75.8389 27.8641C75.8389 28.0505 75.9816 28.1915 76.1702 28.1915C76.3587 28.1915 76.4963 28.0404 76.4963 27.8641V26.383C76.4963 25.1285 77.1945 24.4938 78.0455 24.393C78.2137 24.3678 78.336 24.2419 78.336 24.0656C78.336 23.8892 78.2086 23.7381 78.0099 23.7381C77.4544 23.7381 76.8174 24.1764 76.4912 24.9018V24.0857C76.4912 23.8993 76.3485 23.7583 76.16 23.7583C75.9714 23.7583 75.8338 23.9094 75.8338 24.0857V27.8691L75.8389 27.8641ZM72.0373 28.252C72.924 28.252 73.6578 27.9296 74.2031 27.5366C74.356 27.4359 74.4324 27.2948 74.4324 27.1336V25.3401C74.4324 25.1537 74.2795 25.0026 74.1012 25.0026H72.185C72.022 25.0026 71.8844 25.1386 71.8844 25.3049C71.8844 25.4661 72.022 25.6021 72.185 25.6021H73.7852V27.0681C73.3775 27.3955 72.7456 27.6575 72.0627 27.6575C70.6155 27.6575 69.7033 26.6147 69.7033 25.2041V25.189C69.7033 23.8741 70.6511 22.7709 71.971 22.7709C72.7201 22.7709 73.1992 22.9875 73.6221 23.3099C73.6884 23.3603 73.7597 23.3955 73.8362 23.3955C74.0145 23.3955 74.1674 23.2444 74.1674 23.058C74.1674 22.9421 74.1063 22.8464 74.0298 22.786C73.4845 22.388 72.8985 22.1562 71.9914 22.1562C70.2027 22.1562 69 23.587 69 25.2091V25.2243C69 26.9119 70.1568 28.257 72.0322 28.257L72.0373 28.252Z" fill="white"/>
<path fill-rule="evenodd" clip-rule="evenodd" d="M86 18.236H89.6071V13.7617H94.2368V18.236H97.844V6.4624H94.2368V10.867H89.6071V6.4624H86V18.236ZM105.038 18.4544C105.706 18.4544 106.307 18.3754 106.846 18.2221C107.386 18.0687 107.864 17.855 108.29 17.5762C108.712 17.3021 109.082 16.9769 109.405 16.6052L107.453 15.1416C107.098 15.4575 106.739 15.6945 106.379 15.8432C106.019 15.9919 105.634 16.0662 105.218 16.0662C104.668 16.0662 104.2 15.9408 103.825 15.6899C103.45 15.439 103.188 15.0673 103.044 14.5701H109.775C109.786 14.4586 109.791 14.3471 109.791 14.2356C109.791 14.1241 109.791 14.0126 109.791 13.915C109.791 13.376 109.724 12.8649 109.595 12.3724C109.467 11.8799 109.272 11.4246 109.005 11.0111C108.737 10.5929 108.403 10.2305 107.997 9.91921C107.597 9.61256 107.119 9.37096 106.574 9.19904C106.029 9.02713 105.408 8.93885 104.709 8.93885C103.964 8.93885 103.28 9.0643 102.659 9.31055C102.042 9.55216 101.508 9.89134 101.05 10.3234C100.598 10.7602 100.249 11.262 100.002 11.8381C99.7555 12.4143 99.6321 13.0322 99.627 13.7013V13.7338C99.627 14.4447 99.7606 15.0858 100.028 15.6666C100.29 16.2428 100.66 16.7399 101.143 17.1581C101.621 17.5762 102.191 17.8968 102.849 18.1198C103.506 18.3429 104.231 18.459 105.027 18.4637L105.038 18.4544ZM102.993 12.9393C103.054 12.6047 103.167 12.3167 103.321 12.0704C103.481 11.8242 103.676 11.6337 103.918 11.4989C104.154 11.3596 104.431 11.2945 104.74 11.2899C105.063 11.2899 105.346 11.3596 105.598 11.4896C105.844 11.6244 106.04 11.8149 106.194 12.0565C106.343 12.3027 106.446 12.5955 106.487 12.9346H102.988L102.993 12.9393ZM111.409 18.236H114.945V15.4111C114.95 14.361 115.196 13.5898 115.695 13.0926C116.193 12.5955 116.902 12.3446 117.827 12.3492H118.125V8.98532C117.57 8.96673 117.087 9.03643 116.681 9.1944C116.281 9.35237 115.936 9.58468 115.654 9.89134C115.371 10.1933 115.135 10.5558 114.945 10.9739V9.14329H111.409V18.2407V18.236ZM124.42 18.4544C125.232 18.4497 125.982 18.3243 126.66 18.078C127.338 17.8271 127.929 17.488 128.428 17.0466C128.926 16.6098 129.311 16.1034 129.584 15.5319C129.856 14.9604 129.995 14.3471 130 13.6966V13.6641C130 13.0136 129.856 12.405 129.589 11.8335C129.317 11.262 128.931 10.7648 128.438 10.3281C127.945 9.89598 127.359 9.55681 126.686 9.31055C126.013 9.06895 125.273 8.9435 124.466 8.93885C123.654 8.9435 122.909 9.06895 122.226 9.3152C121.547 9.5661 120.962 9.90528 120.463 10.342C119.965 10.7834 119.574 11.2852 119.302 11.8567C119.03 12.4282 118.891 13.0415 118.886 13.692V13.7245C118.886 14.3796 119.03 14.9883 119.297 15.5551C119.569 16.122 119.954 16.6238 120.448 17.0559C120.946 17.488 121.527 17.8271 122.205 18.0734C122.878 18.3196 123.618 18.4451 124.425 18.4497L124.42 18.4544ZM124.456 15.7456C124.142 15.7456 123.86 15.6899 123.598 15.5784C123.336 15.4715 123.109 15.3228 122.919 15.137C122.729 14.9465 122.58 14.7281 122.477 14.4818C122.375 14.2402 122.318 13.9754 122.318 13.692V13.6594C122.318 13.3853 122.369 13.1251 122.467 12.8835C122.565 12.6419 122.709 12.4282 122.888 12.2423C123.073 12.0565 123.294 11.9078 123.551 11.8056C123.813 11.6987 124.101 11.6476 124.42 11.643C124.733 11.643 125.021 11.6987 125.278 11.8102C125.54 11.9171 125.766 12.0658 125.956 12.2516C126.146 12.4421 126.295 12.6605 126.398 12.9068C126.506 13.153 126.557 13.4178 126.557 13.6966V13.7291C126.557 14.0033 126.506 14.2635 126.408 14.5051C126.311 14.7467 126.172 14.9604 125.987 15.1462C125.807 15.3321 125.586 15.4808 125.329 15.583C125.067 15.6899 124.779 15.741 124.456 15.7456Z" fill="#EF0000"/>
<path fill-rule="evenodd" clip-rule="evenodd" d="M72.1354 14.0534L74.9727 8.02902L77.8099 14.0534H72.1404H72.1354ZM69 17.856C69 18.1931 69.2832 18.4637 69.636 18.4637C69.954 18.4637 70.1826 18.2975 70.3068 18.0079L71.5938 15.264H78.3565L79.6435 17.9747C79.7677 18.2453 79.9963 18.4637 80.3292 18.4637C80.6969 18.4637 81 18.1788 81 17.8228C81 17.7231 80.9652 17.6044 80.9106 17.4857L75.9068 7.05107C75.7478 6.68078 75.4646 6.4624 75.0422 6.4624H74.9727C74.5304 6.4624 74.2671 6.68078 74.0932 7.05107L69.0894 17.5C69.0199 17.6329 69 17.7516 69 17.8513V17.856Z" fill="white"/>
</svg>
